<?xml version="1.0"?>
<svg xmlns="http://www.w3.org/2000/svg" height="512px" viewBox="0 0 60 48" width="512px"><g><g id="Page-1" fill="none" fill-rule="evenodd"><g id="016---Lever" fill="rgb(0,0,0)" fill-rule="nonzero"><path id="Shape" d="m42.453 11.609 4.61-5.267c.1896627-.21705105.4637588-.34170646.752-.342h9.185c1.6568542 0 3-1.34314575 3-3s-1.3431458-3-3-3h-9.185c-2.0186095.00014492-3.9388898.87170724-5.268 2.391l-4.609 5.267c-.1898924.21731361-.4644098.34199483-.753.342h-2.185v-2c0-1.1045695-.8954305-2-2-2h-6c-1.1045695 0-2 .8954305-2 2v2h-1c-1.1087452.00043488-2.1268524.61236323-2.6474954 1.59126419-.520643.97890091-.4589237 2.16515101.1604954 3.08473581-.3285611.3628846-.5112846.8344751-.513 1.324v2c0 1.1045695.8954305 2 2 2v2h-5c-1.2667854.0052514-2.3937454.8056491-2.816 2h-2.184c-1.1045695 0-2 .8954305-2 2h-10c-.55228475 0-1 .4477153-1 1v18c0 .5522847.44771525 1 1 1h10c0 1.1045695.8954305 2 2 2h2.184c.4222546 1.1943509 1.5492146 1.9947486 2.816 2h24c1.2667854-.0052514 2.3937454-.8056491 2.816-2h2.184c1.1045695 0 2-.8954305 2-2h10c.5522847 0 1-.4477153 1-1v-18c0-.5522847-.4477153-1-1-1h-10c0-1.1045695-.8954305-2-2-2h-2.184c-.4222546-1.1943509-1.5492146-1.9947486-2.816-2h-5v-2c1.1045695 0 2-.8954305 2-2v-2c-.0032752-.0814408-.0116248-.1625983-.025-.243 1.3472302-.3539998 2.5582104-1.1018967 3.478-2.148zm-15.453-5.609h6v2h-6zm-25 36v-16h9v16zm11 1v-19h2v20h-2zm45-17v16h-9v-16zm-11-1v19h-2v-20h2zm-4-2v22c0 .5522847-.4477153 1-1 1h-17v-20c0-.5522847-.4477153-1-1-1s-1 .4477153-1 1v20h-5c-.5522847 0-1-.4477153-1-1v-22c0-.5522847.4477153-1 1-1h24c.5522847 0 1 .4477153 1 1zm-8-3h-10v-2h10zm2-4h-14v-2h14zm.185-4h-13.185c-.5522847 0-1-.4477153-1-1s.4477153-1 1-1h13.185c.865105.0002005 1.6881842-.37306483 2.258-1.024l4.61-5.268c.9491412-1.08503714 2.3204125-1.7076133 3.762-1.708h9.185c.5522847 0 1 .44771525 1 1s-.4477153 1-1 1h-9.185c-.865105-.00020051-1.6881842.37306483-2.258 1.024l-4.61 5.268c-.9491412 1.0850371-2.3204125 1.7076133-3.762 1.708z" data-original="#000000" class="active-path" data-old_color="#000000" fill="#FBBC05"/></g></g></g> </svg>
